<svg version="1" xmlns="http://www.w3.org/2000/svg" width="3773.333" height="3773.333" viewBox="0 0 2830.000000 2830.000000"><path d="M664.5 113.6c-4.9.7-15.1 3.1-22.5 5.4-7.4 2.3-14.3 4.3-15.3 4.5-.9.2-2.1.6-2.5.9-.9.6-5.2 1.5-9.6 2.2-1.6.2-3.2.6-3.5 1-1.1 1.1 6.8 21.1 16.7 42.4 2.2 4.7 9.2 20.2 15.7 34.5s17.3 38.1 24 53c6.7 14.8 13.3 29.2 14.5 32 3.3 7.2 19.5 42.4 24.7 53.5 2.5 5.2 7.7 16.5 11.5 25 3.9 8.5 7.9 17.3 8.9 19.4 1 2.2 1.9 4.6 1.9 5.3 0 .7.5 1.3 1 1.3.6 0 1 .6 1 1.3 0 .8 2.5 6.9 5.6 13.8 7.8 17.3 21.8 51 30.4 72.7 6.9 17.6 9.7 23.7 21.8 48.1 4.5 9 6.5 11.9 9.5 13.9 3.5 2.3 4.3 2.5 7.8 1.5 5-1.3 10.1-.8 13.4 1.3 3.4 2.2 13.4 14.9 37.5 47.5 10.7 14.5 20.8 27.9 22.5 29.8 6.1 6.9 16.4 16.3 35.5 32.1 23.8 19.9 39.6 35.5 53.1 52.5 5.3 6.6 13.9 19.1 13.9 20.1 0 .2 1.8 3.4 4 7s4 6.7 4 6.9c0 .1 2.5 4.7 5.7 10.1 8.2 14.4 9.6 17.4 14.8 32.9 2.6 7.7 5.1 14.9 5.5 16 .5 1.1 3.2 8.5 6 16.4 6.6 18.2 10.1 25.6 15.3 31.8 5.4 6.4 9 8.8 17.7 11.6 8.2 2.7 8.1 2.5 19.6 23.3 4.2 7.6 8.8 15.9 10.2 18.4 3.9 7.1 17.4 33.8 20.9 41.5 8.1 17.8 9.9 21.9 16 36 11.3 26.2 18 44.6 33.1 91.5 8.1 25.2 14.6 45.5 14.8 46.5.1.5.7 3 1.5 5.5.7 2.5 1.4 5.2 1.5 6.1.2.8 1 4.2 1.9 7.5 2.6 9.9 7.1 31 8 37.4.2 1.4 1.1 6.3 2 11 .9 4.7 1.9 9.6 2.1 11 1.1 5.7 8.9 32 10.9 36.5.7 1.6 2.3 5.5 3.5 8.5 2.4 5.8 10.2 22.1 12.3 25.5 2.3 3.7 5.2 8 10.4 15.4 2.9 4.1 5.3 7.8 5.3 8.4 0 1.9 9 22.2 21.3 47.8 9.6 20 13.6 25.4 20 26.6l4.2.9.3 6.9c.4 10.8 7.8 35.7 19.5 66.5 6.9 18.1 10.5 26.8 17 41.2 6.5 14.2 23.7 60 25.2 66.8 1 4.7 26.2 78.9 29.2 86 .3.8.7 1.9.9 2.5.1.5 4.4 12 9.4 25.5 13.4 35.6 19 55 24.5 85 .3 1.4.7 3.6 1 5 .5 2.4 3.8 21 4.9 27.5.3 1.6.8 4.8 1.1 7 .3 2.2 1.3 7.8 2 12.5.8 4.7 1.7 10.3 2 12.5.4 2.2 1.2 8 2 13 .7 4.9 1.6 11 1.9 13.5.4 2.5.8 5.6 1 7 .3 1.4 1 6.1 1.6 10.5.6 4.4 1.3 9.1 1.6 10.5.2 1.4.7 4.5.9 7 .3 2.5.7 5.2 1 6 .2.8.7 3.5 1 6 .2 2.5.7 5.6 1 7 .2 1.3.7 4.2 1 6.5.3 2.2.8 5.1 1 6.5.3 1.4.7 3.6 1 5 4.3 22.9 13.9 64.7 18 78 .7 2.5 2.8 9.4 4.6 15.5 6 20.7 28.7 79.4 34.2 88.5 2.5 4.2 4.4 6 8.4 7.9 10.9 5.4 12.7 9 13.9 27.9.3 5.1.7 10.1.9 11 .2.9.4 2.3.4 2.9.1.7.8 1.3 1.6 1.3 4.8 0 14.9 8 18.2 14.3 3.1 6.1-.6 9.8-6.1 6.2-5.9-3.9-4.4 2.6 7 31.7 4.1 10.5 10.9 25.9 15.1 34.2 7.5 14.8 17.6 32 19.4 33.2.6.3 4.3-2 8.4-5 4.1-3.1 8.6-6.1 9.9-6.6 3.2-1.2 6.5-4.7 8.2-8.7.8-1.8 1.8-3.3 2.3-3.3.5 0 2.4 1.7 4.3 3.8 1.9 2.1 4.2 4.1 5 4.5 1.7.6 10.6-3.2 14.5-6.3 1.4-1.1 4.1-2 5.9-2h3.3l-1.3 3.7c-.7 2.1-2.9 6.7-4.9 10.3-3.9 7.2-3.9 7.2-14.5 4.9-2.4-.5-6-1.1-8-1.4-2-.3-4.7-.7-5.9-.9-2.7-.6-3-.2-3.8 5.4-.3 2.5-.8 5.8-1.1 7.5-.7 4.5-3.2 13.6-3.8 14.3-.4.3-2.3-.3-4.4-1.3-2-1-4.6-2-5.7-2.2-3.5-.6-7.3 1.8-9.3 5.8-1.9 3.7-1.9 4.1-.2 9.1 1.4 4.4 2.4 5.6 6.1 7.7 7.5 4.1 25 15.2 33.7 21.4 11.5 8.2 23.8 20.8 36.4 37.4 18.1 23.9 35.3 44.3 55.7 66.2 5.3 5.7 10.7 11.6 12.1 13.1 1.4 1.5 5.9 6.5 10.1 11.1 6.5 7.2 10.6 13.2 22.9 33.8.8 1.4 1.9 3 2.3 3.5.4.6 5.1 7.2 10.4 14.6 8.1 11.4 25.5 34.4 27.3 36 .3.3 2.3 2.6 4.5 5.1 4.2 4.7 16.3 18.3 20.3 22.8 15 16.5 21.3 22.4 36.7 34.9 9.9 8 20.3 16.7 23 19.3 7.1 6.8 9.5 8.7 13.2 11l3.3 2.1 11.3-5.6c6.1-3 13.1-5.9 15.5-6.5 9-2 11-6.8 10.2-24.7-.4-9.1 8.1-26.6 21.8-44.9 4.6-6.1 8.6-11.5 9-12 1.7-2.2 5-10.2 5.3-12.5.1-1.4-.6-4.1-1.6-6.2-2.2-4.4-1.4-7.3 1.7-6.5 1.8.5 3.6-.8 9.2-6.7 8-8.2 13.8-18.3 13.8-23.9 0-3.8-5.6-15-13.9-28-2.3-3.7-4.3-7.1-4.4-7.5 0-.4-1.6-2.7-3.4-5.2-8.4-11.1-23.1-38.9-24.2-45.6-1.1-6.5 7.9-28.9 16.9-42.4 1.7-2.4 4.5-9.1 6.4-14.7 3.3-10.2 3.7-11.7 5.4-21.8 1.1-6.3.4-18.9-1.1-21.8-1.6-2.8-16.2-22.1-17.1-22.5-.5-.2-.8-.8-.8-1.2 0-.5-2-3.7-4.3-7.2-2.4-3.5-6.9-10.6-10-15.8-3.1-5.2-9.1-14.3-13.2-20.2l-7.6-10.8 10.8-6.9c5.9-3.8 12.2-7.9 13.8-9.2 3-2.2 13.5-17.4 24.7-35.6 6.4-10.3 15.9-29.3 15.3-30.3-1.1-1.7 5.2-33.6 10.1-50.8 5.2-18.4 13.5-37.7 25.5-59.4 2.7-4.8 5.1-10 5.3-11.5.4-2.5 1.8-19.9 1.9-23 0-1.2 3.7-5.9 12.5-16.2 7-8.1 15-18.9 17.2-23.2 2.9-5.6 2-7.4-9.7-20.7-3.1-3.5-6.4-7.3-7.4-8.6-2.6-3.3-6.8-11.9-6.3-12.7.2-.4.5-3.1.6-6 0-4.3-.3-5.6-2.1-7-1.8-1.5-2.7-1.6-4.6-.7-2.1.9-3.6.6-9.3-2-3.8-1.8-8-3.2-9.4-3.2-1.4 0-5.3 1.8-8.6 4-3.4 2.2-6.2 3.7-6.2 3.3 0-.3-.8.1-1.8.9-.9.8-4.1 2.5-7.1 3.7l-5.4 2.3-8.6-4.4c-4.7-2.4-8.8-4.5-9.1-4.8-.3-.3-5.2-2.9-11-5.9-5.8-2.9-11.2-5.8-12-6.5-3.1-2.3-7-7.8-7-9.8 0-2.3.4-3.1 11.3-25.8 10.4-21.7 13.1-30.4 16.3-51.5.3-2.2 1.2-5.4 2-7 .7-1.7 1.9-6 2.7-9.7 1.2-6.2 1.2-7.6-1-18-3.6-17.5-3.5-32.2.2-47.3 1.3-5 6.4-14.1 11.8-21 7.5-9.7 8-10.5 6.9-12.8-.7-1.2-3-8.7-5.2-16.7-5.7-20.2-8.5-25.6-19.1-36-11-10.8-15.2-18.9-12.1-23.7 1.1-1.8 7.2-4.1 12.8-4.9 6.3-.8 7.6-1.5 11.7-6.6 7.4-9.3 16.8-28.6 18.6-38.2 1.4-7.8-.6-15.1-5.9-21.2-2.6-3-12.1-24.4-17.4-39.2-3.7-10.5-5.3-13.1-11.6-19.4-6.6-6.5-14.9-12.1-22.9-15.3l-5.5-2.3-2.7 2.7c-2.8 2.7-13.3 12.1-18.4 16.3-4.4 3.7-21.4 14.7-28.9 18.8-6.1 3.3-25.3 16.3-33.1 22.5-7.7 6.1-17.6 11.6-25.8 14.4l-5.4 1.9-6.8-3-6.8-3-7.6 1.8c-9.6 2.3-17 2.4-18.2.4-8.6-15.1-13.4-22.4-20.9-31.3-.8-1-3.9-2.5-6.8-3.3l-5.4-1.6.5-4.3c.3-2.3 2.4-9.2 4.7-15.1 2.7-7.3 3.9-11.8 3.5-13.5-.7-3.1-5-10.1-10.6-17.5-6.4-8.4-8.3-17.2-6.5-29.9.4-2.8.9-7.5 1.2-10.5.7-7.9 1-10.7 2.3-18 1.9-11.7 2.3-14.4 3.1-22 .4-4.1.6-8.6.4-10-.2-1.4-.5-4.8-.8-7.7-.8-6.8-3.9-15.1-8.2-21.4-2.5-3.8-3.1-5.5-2.5-6.8 1.4-2.6 7.5-4.1 17.6-4.4 5.9-.2 10.1-.9 12.1-2 5.6-2.9 6.7-9.4 3-18.1-4-9.6-5.8-20.4-3.7-23 1.6-2.1 7-16.4 9.6-25.2 2.1-7.1 3.5-15 3.7-20.4.1-2-.9-3.4-6.5-9.1-7.2-7.4-10.8-12.2-12.5-16.4-3.7-9.1-50.8-29.4-106.2-45.7-5.8-1.7-10.9-3.4-11.4-3.9-.6-.5-.5-1.7.1-3.1.6-1.3 3-7.3 5.4-13.3 3.5-9.1 14.3-27.7 20.1-35 .5-.6 3.5-4.5 6.8-8.8 3.3-4.2 6.7-7.7 7.4-7.7.7 0 7.4 2.9 14.8 6.4l13.5 6.4 3.1-5.2c3.6-5.8 6.5-12.6 5.9-13.3-.3-.2-4 .3-8.3 1.2-4.4.9-9.2 1.9-10.8 2.2l-2.9.5.7-14.4c.3-7.9.8-15.4 1-16.8.3-1.4.7-5.2 1.1-8.5.4-3.2.8-6.2 1.1-6.6.2-.4-2.9-1.7-6.8-2.9-20.7-6.2-23.8-7.2-26.2-9.1-4.7-3.7-3.4-7 6.9-17.2 4.2-4.2 5.9-7.9 6.9-14.8 1.2-7.9-10.9-18.5-18.6-16.5-1.3.3-4.7 2.8-7.7 5.6-15.6 14.7-36.2 22.3-53.1 19.6-1.9-.3-5.7-.8-8.5-1.1-7.3-.7-14.4-1.5-19-2-2.2-.3-8.5-.7-14-1-5.5-.3-12.1-.8-14.8-1-7.2-.6-12.3-4.9-16.6-14-4.3-9.2-4.5-8.8 7.7-12 23.4-6 32.4-14.3 40.2-36.8 4.4-12.8 4.5-16.3.7-20.2-1.8-1.8-13.3-7.5-24.2-12-4.9-2-11-4.6-13.5-5.7-2.5-1.1-5.8-2.6-7.5-3.3-15.5-6.9-16.1-7.3-20.5-12.5-6.3-7.5-16-16.9-19.2-18.6-1.5-.8-4.4-1.6-6.5-2-2.1-.3-4.9-.7-6.3-1-1.4-.2-4.7-.7-7.5-1-15.3-1.8-24.2-3.7-34.3-7.3-6.2-2.2-12-4.5-13-5-2.3-1.2-6.6-10.1-10.4-21.1-5.4-16.1-5.9-21.7-2.3-29.1 3.3-7.1 7.4-11.8 11.1-12.8 3.2-.8 11.9 1.3 14.4 3.5 2.3 2 11.3 1 20-2.1 4.1-1.5 10.1-3.6 13.2-4.7 5.2-1.8 6.5-2.8 12.5-10.4 4-5.1 7.3-8.4 8.5-8.4 3.1 0 14.1-5.5 18.4-9.3 4.7-4.1 8.4-11.1 8.4-16 0-2.9-.3-3.3-3-3.5-5.2-.4-11-3.3-12.5-6.1-1.6-3.2-1.4-4.1 4.3-21.6 3.5-10.7 3.7-12.1 2.3-13-1.9-1.2-35.5-1.3-45.3-.2-5.3.7-7.3.5-9.9-.8-5.2-2.7-9.8-7.5-15.5-16.2-5.1-7.8-5.8-8.4-13.1-11.9-6.5-3.1-8.3-3.5-11.7-2.9-13.1 2.3-14.3 1.5-18.7-12.8-3.6-11.9-5.2-15.1-8.8-19-3.4-3.7-6.7-5.3-11.7-5.6-4.2-.2-21.2 3.5-22.8 5-1.6 1.5-5.4 1-10.6-1.2-5.6-2.4-5.3-1.7-7.9-16.7-1.2-6.2-2.8-12.5-3.7-14-6.5-10.9-30.9-17.3-52.9-13.9-10.8 1.6-41.5 1.1-48.5-.8-.8-.2-3.3-.6-5.5-.9-7.7-.9-14.1-2.5-20.5-5.1-9.4-3.8-23.9-7.3-34.2-8.4-1-.1-2.1-6-2.3-13.6-.2-3.9-.8-8.4-1.5-10-.6-1.7-1.1-3.2-1.1-3.5.3-1.7-1.4-8-2.9-11-2.5-5-6.1-17-5.4-18.1.3-.6-6.4-.9-16.8-.9-9.5.1-18.2-.2-19.3-.5-4.7-1.6-11.3-5.2-15.8-8.7-4.2-3.3-5.6-3.8-10-3.8-2.9 0-7.7.7-10.7 1.5-3 .8-5.8 1.5-6.1 1.5-.3 0-1.8-4.2-3.3-9.3-3.6-11.9-8.3-19-13.9-21.2-4.4-1.6-4.9-1.7-13-1.5-3.4.1-6.4-.6-10.1-2.4-5.5-2.7-7.8-5.3-22.6-25.1-4.1-5.5-7.7-10.2-8-10.5-.3-.3-3.3-4.3-6.7-9-11.3-15.8-22.5-25.3-39.9-33.8-4.4-2.1-8.1-3.8-8.4-3.9-.3 0-2.4-.6-4.7-1.2l-4.1-1.1.5-4.3c.2-2.3.8-6 1.3-8.2 1.3-5.6 1.2-11-.2-15.9-1.3-4.3-7-10.6-18.6-20.4-7.1-6.1-10.2-11.3-10.2-17.3 0-8.7 5.1-14.2 16.2-17.3 3.2-.9 7-2.7 8.5-4 2.4-2.1 2.8-3.1 2.6-7.4-.2-7.2-3.4-13.9-7-14.9-3.3-.8-10.5-.8-12.7 0-.8.3-2.4 2.4-3.5 4.5-3.5 6.8-8.3 11.2-12.3 11.2-4.3 0-7.2-2.1-15.8-11.3-3.6-3.8-8.5-8.3-11-10-12.1-8.3-15.8-12.2-16.6-17.3-1.1-7.7-.3-8.9 9.2-13.4 4.7-2.3 8.7-4.7 9-5.5 1.2-3-2-8.7-8.4-15-3.6-3.6-7-6.5-7.5-6.5s-5 4-10 8.9c-10.4 10.1-12.8 12.1-17.5 14.5-2.8 1.4-3.6 1.5-5 .4-4.5-3.5-9.1-12.6-9.7-19.3-.3-2.7-1.1-5.5-1.7-6.3-2.3-2.7-9.4-5.5-16.2-6.2-9.1-1-10.7-2.9-10.4-11.9.1-6.3 0-6.6-3.4-9.6-4.9-4.2-19-11.5-22.2-11.5-3.9 0-10.7 3.5-16 8.4-4.4 3.9-5.2 4.3-9 3.9-5.4-.7-7.4-2.5-7.1-6.6.4-3.9 1.2-7.4 2-8.7.3-.5.8-2.8 1.1-5 .4-3.1 0-4.4-1.7-6.1-2-2-2.9-2.1-9.4-1.6-4 .4-8.4 1.1-9.8 1.6-1.8.7-2.8.6-3.6-.3-2.9-3.5-5.3-14.8-6-28.7-.3-6.4-5.7-8.2-19.6-6.3z"/></svg>