<svg enable-background="new 0 0 573.718 249.331" height="249.331" viewBox="0 0 573.718 249.331" width="573.718" xmlns="http://www.w3.org/2000/svg" xmlns:xlink="http://www.w3.org/1999/xlink"><defs><path id="a" d="m94.552 57.969 54.759 128.986 78.429-46.135z"/><clipPath id="b"><use xlink:href="#a"/></clipPath><clipPath id="c"><use xlink:href="#d"/></clipPath><path id="d" d="m44.659 139.998 127.65 71.521h.002l-79.165-154.67z"/></defs><use fill="#fff" xlink:href="#a"/><path clip-path="url(#b)" d="m69.148 36.591h181.045v176.15h-181.045z" fill="#fff" stroke="#0a8040" stroke-miterlimit="10" stroke-width="3" transform="matrix(-.8491 -.5282 .5282 -.8491 229.4034 314.8589)"/><use fill="none" stroke="#0a8040" stroke-miterlimit="10" stroke-width="3" xlink:href="#a"/><use fill="#fff" xlink:href="#d"/><path clip-path="url(#c)" d="m37.926 51.393h141.118v165.583h-141.118z" fill="#fff" stroke="#0a8040" stroke-miterlimit="10" stroke-width="3" transform="matrix(-.9959 .0904 -.0904 -.9959 228.6629 258.0059)"/><use fill="none" stroke="#0a8040" stroke-miterlimit="10" stroke-width="3" xlink:href="#d"/><path d="m2.25 165.496 76.336 49.529 14.56-156.177z" fill="#fff" stroke="#0a8040" stroke-miterlimit="10" stroke-width="3"/><g fill="#5d5e5e"><path d="m263.76 78.087v-.927c0-10.89 4.125-15.941 8.897-15.941 1.483 0 2.27.232 3.336.742v3.197c-1.205-.695-2.086-1.02-3.151-1.02-3.337 0-6.024 4.125-6.024 13.022v.927c0 9.037 2.688 13.022 6.024 13.022 1.112 0 2.084-.325 3.244-1.02v3.012c-1.02.603-2.132.927-3.568.927-4.912 0-8.758-5.098-8.758-15.941z"/><path d="m278.493 81.979v-.695c0-7.739 3.244-12.28 7.137-12.28 3.847 0 7.09 4.542 7.09 12.28v.695c0 7.739-3.243 12.28-7.136 12.28-3.847 0-7.091-4.541-7.091-12.28zm11.307 0v-.742c0-5.978-1.854-9.592-4.217-9.592s-4.218 3.615-4.218 9.592v.742c0 5.978 1.854 9.639 4.218 9.639s4.217-3.661 4.217-9.639z"/><path d="m296.471 61.126h2.919v32.717h-2.919z"/><path d="m304.209 61.126h2.919v32.717h-2.919z"/><path d="m310.881 82.118v-.649c0-8.295 3.197-12.466 6.905-12.466 3.8 0 6.534 4.31 6.534 12.049v1.854h-10.566c.186 5.839 2.549 8.573 5.469 8.573 1.529 0 2.642-.463 4.263-1.529l.278 2.78c-1.761 1.066-3.012 1.483-4.958 1.483-4.218 0-7.925-4.078-7.925-12.095zm10.658-1.622c0-5.236-1.529-8.851-3.753-8.851-2.179 0-3.894 2.919-4.032 8.851z"/><path d="m327.098 82.026v-.742c0-8.295 3.567-12.234 7.507-12.234 1.298 0 2.271.278 3.059.788v3.058c-.881-.648-1.808-1.065-2.92-1.065-2.271 0-4.727 2.827-4.727 9.361v.927c0 6.673 2.363 9.314 4.912 9.314.927 0 1.9-.463 2.734-1.112v2.919c-.881.603-1.808.973-3.104.973-4.032 0-7.461-3.846-7.461-12.187z"/><path d="m341.456 89.718v-17.841h-2.086v-2.502h2.086v-6.719h2.919v6.719h3.661v2.502h-3.661v17.146c0 1.854.834 2.363 2.271 2.363.417 0 1.02-.093 1.437-.232v2.502c-.556.232-1.437.417-2.085.417-2.643.001-4.542-1.064-4.542-4.355z"/><path d="m351.556 61.126h3.013v3.8h-3.013zm.047 8.248h2.919v24.468h-2.919z"/><path d="m357.95 69.374h2.92l4.217 19.695 4.263-19.695h2.827l-5.746 24.607h-2.688z"/><path d="m373.656 82.118v-.649c0-8.295 3.197-12.466 6.905-12.466 3.8 0 6.534 4.31 6.534 12.049v1.854h-10.566c.186 5.839 2.549 8.573 5.469 8.573 1.529 0 2.642-.463 4.263-1.529l.278 2.78c-1.761 1.066-3.012 1.483-4.958 1.483-4.218 0-7.925-4.078-7.925-12.095zm10.658-1.622c0-5.236-1.529-8.851-3.753-8.851-2.179 0-3.893 2.919-4.032 8.851z"/><path d="m399.093 71.877h-2.225v-2.502h2.225v-2.548c0-3.847 1.854-5.793 5.144-5.793.557 0 1.205.046 1.622.186v2.595c-.324-.093-.927-.139-1.205-.139-1.714 0-2.642 1.066-2.642 3.429v2.271h3.661v2.502h-3.661v21.966h-2.919z"/><path d="m407.062 81.979v-.695c0-7.739 3.243-12.28 7.136-12.28 3.847 0 7.091 4.542 7.091 12.28v.695c0 7.739-3.244 12.28-7.137 12.28-3.847 0-7.09-4.541-7.09-12.28zm11.307 0v-.742c0-5.978-1.854-9.592-4.217-9.592s-4.217 3.615-4.217 9.592v.742c0 5.978 1.854 9.639 4.217 9.639s4.217-3.661 4.217-9.639z"/><path d="m424.854 69.374h2.873v3.43c.88-2.178 2.595-3.893 5.236-3.708v3.29h-.093c-2.919 0-5.144 1.9-5.144 5.978v15.478h-2.873v-24.468z"/><path d="m263.76 133.735v-1.02c0-10.705 3.383-16.127 7.971-16.127 4.587 0 7.924 5.422 7.924 16.127v1.02c0 10.705-3.337 16.126-7.924 16.126-4.588 0-7.971-5.422-7.971-16.126zm12.882 0v-1.02c0-9.129-2.132-13.346-4.912-13.346-2.781 0-4.912 4.217-4.912 13.346v1.02c0 9.129 2.131 13.346 4.912 13.346 2.78 0 4.912-4.218 4.912-13.346z"/><path d="m283.452 124.976h2.873v4.264c.927-2.456 2.456-4.681 4.912-4.681 3.243 0 6.07 3.893 6.07 12.049v1.205c0 8.063-2.827 12.048-6.07 12.048-2.456 0-3.985-2.224-4.912-4.634v10.241h-2.873zm10.935 12.744v-1.02c0-6.071-1.714-9.454-3.938-9.454-2.178 0-4.217 3.336-4.217 9.314v1.297c0 5.978 2.039 9.315 4.217 9.315 2.224.002 3.938-3.382 3.938-9.452z"/><path d="m300.085 137.72v-.649c0-8.295 3.198-12.466 6.905-12.466 3.8 0 6.534 4.31 6.534 12.049v1.854h-10.566c.186 5.839 2.549 8.573 5.469 8.573 1.529 0 2.642-.463 4.264-1.529l.277 2.78c-1.761 1.066-3.012 1.483-4.958 1.483-4.217 0-7.925-4.078-7.925-12.095zm10.659-1.622c0-5.236-1.529-8.851-3.754-8.851-2.178 0-3.893 2.919-4.032 8.851z"/><path d="m317.136 124.976h2.873v3.43c.88-2.039 2.317-3.847 4.865-3.847 3.244 0 5.33 2.734 5.33 7.368v17.517h-2.874v-17.007c0-3.429-1.251-5.329-3.429-5.329s-3.893 2.225-3.893 5.607v16.729h-2.873v-24.468z"/><path d="m342.156 117.006h4.217c6.349 0 10.659 5.375 10.659 15.756v.927c0 10.38-4.311 15.756-10.659 15.756h-4.217zm4.402 29.704c4.31 0 7.415-4.125 7.415-13.022v-.927c0-8.897-3.244-13.022-7.461-13.022h-1.344v26.971z"/><path d="m359.671 142.4v-.463c0-4.819 2.317-7.832 6.163-7.832 1.529 0 2.78.417 3.893.927v-2.641c0-3.151-1.482-4.959-4.355-4.959-1.622 0-2.966.371-4.402 1.112v-2.78c1.437-.695 2.919-1.066 4.772-1.066 4.264 0 6.858 2.595 6.858 7.415v17.332h-2.919v-3.29c-.974 2.317-2.456 3.707-4.681 3.707-3.105-.001-5.329-3.106-5.329-7.462zm10.055-.278v-4.681c-1.065-.51-2.225-.88-3.383-.88-2.502 0-3.846 2.085-3.846 5.19v.463c0 3.058 1.204 5.144 3.336 5.144 2.318.001 3.893-2.455 3.893-5.236z"/><path d="m377.272 145.32v-17.841h-2.086v-2.502h2.086v-6.719h2.919v6.719h3.661v2.502h-3.661v17.146c0 1.854.834 2.363 2.271 2.363.417 0 1.02-.093 1.437-.232v2.502c-.556.232-1.437.417-2.085.417-2.642.001-4.542-1.065-4.542-4.355z"/><path d="m386.122 142.4v-.463c0-4.819 2.317-7.832 6.163-7.832 1.529 0 2.78.417 3.893.927v-2.641c0-3.151-1.482-4.959-4.355-4.959-1.622 0-2.966.371-4.402 1.112v-2.78c1.437-.695 2.919-1.066 4.772-1.066 4.264 0 6.858 2.595 6.858 7.415v17.332h-2.919v-3.29c-.974 2.317-2.456 3.707-4.681 3.707-3.105-.001-5.329-3.106-5.329-7.462zm10.055-.278v-4.681c-1.065-.51-2.225-.88-3.383-.88-2.502 0-3.846 2.085-3.846 5.19v.463c0 3.058 1.204 5.144 3.336 5.144 2.318.001 3.893-2.455 3.893-5.236z"/><path d="m410.956 117.006h4.217c6.349 0 10.659 5.375 10.659 15.756v.927c0 10.38-4.311 15.756-10.659 15.756h-4.217zm4.402 29.704c4.31 0 7.415-4.125 7.415-13.022v-.927c0-8.897-3.244-13.022-7.461-13.022h-1.344v26.971z"/><path d="m429.721 116.727h3.013v3.8h-3.013zm.047 8.249h2.919v24.468h-2.919z"/><path d="m436.161 148.61v-2.919c1.715.88 3.383 1.437 4.866 1.437 1.808 0 3.244-1.205 3.244-3.151v-.093c0-1.529-.834-3.012-3.568-5.607-3.29-3.151-4.588-5.144-4.588-7.786v-.092c0-3.615 2.688-5.747 5.932-5.747 1.575 0 2.734.232 4.031.788v2.919c-1.344-.695-2.641-1.02-4.031-1.02-1.761 0-3.059 1.112-3.059 2.919v.093c0 1.529.788 2.688 3.614 5.468 3.291 3.29 4.542 5.283 4.542 7.924v.092c0 3.661-2.827 5.932-6.071 5.932-1.807.001-3.336-.416-4.912-1.157z"/><path d="m450.752 145.32v-17.841h-2.086v-2.502h2.086v-6.719h2.919v6.719h3.661v2.502h-3.661v17.146c0 1.854.834 2.363 2.271 2.363.417 0 1.02-.093 1.437-.232v2.502c-.556.232-1.437.417-2.085.417-2.643.001-4.542-1.065-4.542-4.355z"/><path d="m460.713 124.976h2.873v3.43c.88-2.178 2.595-3.893 5.236-3.708v3.29h-.093c-2.919 0-5.144 1.9-5.144 5.978v15.478h-2.873v-24.468z"/><path d="m471.879 116.727h3.013v3.8h-3.013zm.046 8.249h2.919v24.468h-2.919z"/><path d="m482.351 145.227v4.217h-2.873v-32.717h2.873v12.512c.927-2.456 2.456-4.681 4.912-4.681 3.244 0 6.07 3.893 6.07 12.049v1.205c0 8.063-2.826 12.048-6.07 12.048-2.456.001-3.985-2.223-4.912-4.633zm8.064-7.507v-1.02c0-6.071-1.715-9.454-3.939-9.454-2.178 0-4.217 3.336-4.217 9.314v1.297c0 5.978 2.039 9.315 4.217 9.315 2.224.002 3.939-3.382 3.939-9.452z"/><path d="m496.806 142.493v-17.517h2.873v17.007c0 3.429 1.251 5.329 3.43 5.329 2.178 0 3.893-2.224 3.893-5.561v-16.776h2.873v24.468h-2.873v-3.383c-.881 1.993-2.317 3.8-4.866 3.8-3.245.001-5.33-2.733-5.33-7.367z"/><path d="m515.016 145.32v-17.841h-2.086v-2.502h2.086v-6.719h2.919v6.719h3.661v2.502h-3.661v17.146c0 1.854.834 2.363 2.271 2.363.417 0 1.02-.093 1.437-.232v2.502c-.556.232-1.437.417-2.085.417-2.642.001-4.542-1.065-4.542-4.355z"/><path d="m525.116 116.727h3.013v3.8h-3.013zm.047 8.249h2.919v24.468h-2.919z"/><path d="m531.88 137.581v-.695c0-7.739 3.243-12.28 7.136-12.28 3.847 0 7.091 4.542 7.091 12.28v.695c0 7.739-3.244 12.28-7.137 12.28-3.846 0-7.09-4.541-7.09-12.28zm11.307 0v-.742c0-5.978-1.854-9.592-4.217-9.592s-4.217 3.615-4.217 9.592v.742c0 5.978 1.854 9.639 4.217 9.639s4.217-3.661 4.217-9.639z"/><path d="m549.673 124.976h2.873v3.43c.88-2.039 2.317-3.847 4.865-3.847 3.244 0 5.33 2.734 5.33 7.368v17.517h-2.874v-17.007c0-3.429-1.251-5.329-3.429-5.329s-3.893 2.225-3.893 5.607v16.729h-2.873v-24.468z"/><path d="m264.594 172.607h3.012v17.1l7.785-17.1h3.429l-6.95 14.412 7.646 18.027h-3.336l-6.302-14.69-2.271 4.819v9.871h-3.012v-32.439z"/><path d="m280.433 193.321v-.649c0-8.295 3.198-12.466 6.905-12.466 3.8 0 6.534 4.31 6.534 12.049v1.854h-10.566c.186 5.839 2.549 8.573 5.469 8.573 1.529 0 2.642-.463 4.264-1.529l.277 2.78c-1.761 1.066-3.012 1.483-4.958 1.483-4.217 0-7.925-4.078-7.925-12.095zm10.659-1.622c0-5.236-1.529-8.851-3.754-8.851-2.178 0-3.893 2.919-4.032 8.851z"/><path d="m297.485 180.577h2.873v3.429c.88-2.178 2.595-3.893 5.236-3.708v3.29h-.093c-2.92 0-5.144 1.9-5.144 5.978v15.478h-2.873v-24.467z"/><path d="m306.608 198.001v-.463c0-4.819 2.317-7.832 6.163-7.832 1.53 0 2.781.417 3.894.927v-2.642c0-3.151-1.483-4.958-4.356-4.958-1.622 0-2.966.371-4.402 1.112v-2.78c1.437-.695 2.919-1.066 4.772-1.066 4.264 0 6.859 2.595 6.859 7.415v17.332h-2.92v-3.29c-.973 2.317-2.456 3.707-4.681 3.707-3.104-.001-5.329-3.106-5.329-7.462zm10.057-.278v-4.681c-1.066-.51-2.225-.88-3.384-.88-2.502 0-3.846 2.085-3.846 5.19v.463c0 3.058 1.205 5.144 3.336 5.144 2.318.001 3.894-2.455 3.894-5.236z"/><path d="m323.937 172.328h2.919v32.717h-2.919z"/><path d="m330.378 198.001v-.463c0-4.819 2.317-7.832 6.163-7.832 1.529 0 2.78.417 3.893.927v-2.642c0-3.151-1.482-4.958-4.355-4.958-1.622 0-2.966.371-4.402 1.112v-2.78c1.437-.695 2.919-1.066 4.772-1.066 4.264 0 6.858 2.595 6.858 7.415v17.332h-2.919v-3.29c-.974 2.317-2.456 3.707-4.681 3.707-3.105-.001-5.329-3.106-5.329-7.462zm10.055-.278v-4.681c-1.065-.51-2.225-.88-3.383-.88-2.502 0-3.846 2.085-3.846 5.19v.463c0 3.058 1.204 5.144 3.336 5.144 2.318.001 3.893-2.455 3.893-5.236z"/></g></svg>